<svg width="24" height="18" viewBox="0 0 24 18" fill="none" xmlns="http://www.w3.org/2000/svg">
<path d="M21.5799 1.21878L21.5799 1.21878L8.13775 14.4385L3.03555 9.42077C3.03555 9.42077 3.03555 9.42077 3.03554 9.42077C2.53559 8.92905 1.72606 8.92912 1.22605 9.42076L1.22604 9.42076C0.72465 9.91381 0.724658 10.7142 1.22604 11.2073L1.33121 11.1004L1.22604 11.2073L7.23296 17.1147C7.23297 17.1147 7.23297 17.1147 7.23298 17.1147C7.73283 17.6064 8.54289 17.606 9.04249 17.1147L23.3894 3.00535C23.8908 2.51231 23.8907 1.71186 23.3894 1.21879C22.8894 0.727065 22.0799 0.72708 21.5799 1.21878Z" fill="white" stroke="white" stroke-width="0.3"/>
</svg>
