<svg width="30" height="31" viewBox="0 0 30 31" fill="none" xmlns="http://www.w3.org/2000/svg">
<path fill-rule="evenodd" clip-rule="evenodd" d="M0.545898 15.5456C0.545898 7.41198 7.13952 0.818359 15.2732 0.818359C23.4068 0.818359 30.0004 7.41198 30.0004 15.5456C30.0004 23.6793 23.4068 30.2729 15.2732 30.2729C7.13952 30.2729 0.545898 23.6793 0.545898 15.5456ZM15.2632 15.7821C17.4349 15.7821 19.2002 14.0778 19.2002 11.9826C19.2002 9.88674 17.4349 8.182 15.2632 8.182C13.0919 8.182 11.3261 9.88674 11.3261 11.9826C11.3261 14.0778 13.0919 15.7821 15.2632 15.7821ZM19.1523 17.9701C18.4404 18.4017 17.6675 18.7078 16.8661 18.884L19.0671 21.0087C19.5179 21.4431 19.5179 22.1484 19.0671 22.5832C18.6167 23.018 17.8866 23.018 17.4367 22.5832L15.2728 20.4953L13.1107 22.5832C12.8853 22.8003 12.5899 22.909 12.2945 22.909C11.9996 22.909 11.7046 22.8003 11.4792 22.5832C11.0288 22.1484 11.0288 21.4435 11.4787 21.0087L13.6799 18.884C12.8785 18.7078 12.1056 18.4012 11.3937 17.9701C10.8549 17.6422 10.6931 16.9553 11.0325 16.4348C11.3711 15.9136 12.0829 15.7567 12.6226 16.0846C14.2344 17.0633 16.3107 17.0635 17.9234 16.0846C18.4631 15.7567 19.1747 15.9136 19.5139 16.4348C19.8534 16.9548 19.6911 17.6422 19.1523 17.9701Z" fill="white"/>
<path d="M15.2629 10.4092C16.1619 10.4092 16.8931 11.1148 16.8931 11.9825C16.8931 12.8495 16.1619 13.5556 15.2629 13.5556C14.3647 13.5556 13.6328 12.8495 13.6328 11.9825C13.6328 11.1148 14.3647 10.4092 15.2629 10.4092Z" fill="white"/>
</svg>
