<svg width="30" height="30" viewBox="0 0 30 30" fill="none" xmlns="http://www.w3.org/2000/svg">
<path fill-rule="evenodd" clip-rule="evenodd" d="M14.7273 0C6.59362 0 0 6.59362 0 14.7273C0 22.8609 6.59362 29.4545 14.7273 29.4545C22.8609 29.4545 29.4545 22.8609 29.4545 14.7273C29.4545 6.59362 22.8609 0 14.7273 0ZM15.9264 19.3763C15.7812 19.5294 15.4977 19.5603 15.4977 19.5603H14.5588C14.5588 19.5603 12.4873 19.6825 10.6626 17.8181C8.67257 15.7841 6.9154 11.7484 6.9154 11.7484C6.9154 11.7484 6.81398 11.4837 6.92385 11.3562C7.04755 11.2122 7.38485 11.2031 7.38485 11.2031L9.62915 11.1888C9.62915 11.1888 9.84044 11.2227 9.9918 11.3321C10.117 11.4226 10.187 11.5908 10.187 11.5908C10.187 11.5908 10.5496 12.4913 11.0298 13.3058C11.968 14.8964 12.4044 15.2441 12.7225 15.0736C13.1865 14.8255 13.0475 12.8254 13.0475 12.8254C13.0475 12.8254 13.0559 12.0999 12.8139 11.7763C12.6264 11.5259 12.273 11.4528 12.117 11.4324C11.9902 11.4158 12.1977 11.1277 12.4666 10.9987C12.8707 10.8049 13.5838 10.7936 14.4266 10.8019C15.0835 10.8087 15.2725 10.8486 15.5292 10.9097C16.1248 11.0508 16.1062 11.5029 16.066 12.4787C16.054 12.7705 16.0401 13.1092 16.0401 13.5004C16.0401 13.5883 16.0375 13.682 16.0348 13.7784C16.0209 14.2783 16.0049 14.8508 16.3405 15.0638C16.5126 15.1724 16.9329 15.0797 17.9848 13.3269C18.4834 12.4958 18.8568 11.5191 18.8568 11.5191C18.8568 11.5191 18.939 11.3449 19.0658 11.2702C19.1957 11.1941 19.3708 11.2174 19.3708 11.2174L21.7327 11.2031C21.7327 11.2031 22.4426 11.1194 22.5571 11.4347C22.6777 11.7642 22.292 12.535 21.327 13.7975C20.4116 14.9955 19.9661 15.4365 20.007 15.8266C20.0369 16.1116 20.3265 16.3694 20.8821 16.8754C22.0422 17.9326 22.3531 18.4888 22.4278 18.6224C22.434 18.6335 22.4386 18.6417 22.4419 18.647C22.962 19.494 21.8648 19.5603 21.8648 19.5603L19.7665 19.589C19.7665 19.589 19.3163 19.6765 18.7231 19.2767C18.4124 19.0675 18.1088 18.7258 17.8196 18.4004C17.378 17.9034 16.97 17.4442 16.6217 17.5527C16.037 17.7352 16.0547 18.9713 16.0547 18.9713C16.0547 18.9713 16.0593 19.236 15.9264 19.3763Z" fill="white"/>
</svg>
