<svg width="30" height="31" viewBox="0 0 30 31" fill="none" xmlns="http://www.w3.org/2000/svg">
<path fill-rule="evenodd" clip-rule="evenodd" d="M0.272461 15.5456C0.272461 23.6793 6.86609 30.2729 14.9997 30.2729C23.1334 30.2729 29.727 23.6793 29.727 15.5456C29.727 7.41198 23.1334 0.818359 14.9997 0.818359C6.86609 0.818359 0.272461 7.41198 0.272461 15.5456ZM12.2997 22.2956L12.5503 18.5416L12.5501 18.5414L19.3792 12.3787C19.6789 12.1127 19.3138 11.9829 18.9159 12.2242L10.4878 17.5414L6.84738 16.4051C6.0612 16.1644 6.05555 15.6242 7.02388 15.2358L21.2099 9.76571C21.8578 9.47155 22.4832 9.92132 22.2359 10.913L19.82 22.2975C19.6513 23.1065 19.1625 23.3 18.4852 22.9263L14.805 20.2074L13.0361 21.9275C13.0305 21.9329 13.025 21.9383 13.0195 21.9437C12.8216 22.1363 12.6579 22.2956 12.2997 22.2956Z" fill="#164A97"/>
</svg>
