<svg width="79" height="79" viewBox="0 0 79 79" fill="none" xmlns="http://www.w3.org/2000/svg">
<g clip-path="url(#clip0_35_81)">
<path d="M2.48418 1.10615C1.58926 1.46103 0.802344 2.1708 0.339453 3.03486L0 3.65205V40.2976V76.9431L0.339453 77.5602C0.725195 78.2854 1.48125 79.0261 2.2373 79.4272C2.76191 79.705 3.78027 79.7204 29.9336 79.7667C59.79 79.7976 57.8459 79.8593 59.0494 78.8718C59.358 78.6095 59.79 78.054 60.0061 77.6065L60.4072 76.8042V69.4597V62.0997L60.0523 61.7757C59.5432 61.2974 58.71 61.3282 58.2316 61.8374L57.8613 62.2386L57.8305 69.1202C57.7996 72.9159 57.7533 76.1716 57.707 76.3567C57.5064 77.2208 59.0186 77.1745 30.0879 77.1745H3.44082L2.99336 76.727L2.5459 76.2796V40.313V4.36182L2.91621 3.92978L3.28652 3.49775L29.9645 3.45146C48.7732 3.43604 56.7504 3.46689 57.0281 3.59033C57.2596 3.66748 57.5064 3.89893 57.6145 4.08408C57.7379 4.33096 57.7996 8.01865 57.8305 17.1839L57.8613 29.9288L58.2316 30.33C58.7254 30.8546 59.5895 30.8854 60.0678 30.3763L60.4072 30.0214V16.9062V3.79092L60.0061 2.97314C59.5277 2.03193 58.5248 1.21416 57.5219 0.967285C57.0744 0.843842 48.4338 0.797554 30.057 0.797554C3.98086 0.812988 3.2248 0.812988 2.48418 1.10615Z" fill="#124590"/>
<path d="M12.6369 8.82129C11.8654 9.12988 11.8037 9.43848 11.8037 12.725C11.8037 15.7646 11.8037 15.7801 12.1895 16.1504L12.5598 16.5361H30.2113H47.8629L48.1715 16.1813C48.6344 15.6721 48.6961 15.348 48.4646 14.7771C48.3258 14.4223 48.0943 14.2063 47.7549 14.0828C47.3846 13.9594 42.6785 13.9131 30.8439 13.9131H14.4268V12.6016V11.29H31.1371H47.8629L48.1715 10.9352C48.6344 10.426 48.6961 10.102 48.4646 9.53105C48.3258 9.17617 48.0943 8.96016 47.7549 8.83672C47.1377 8.63613 13.1615 8.60527 12.6369 8.82129Z" fill="#124590"/>
<path d="M73.2911 17.0139C72.4734 17.415 71.8716 18.0014 71.347 18.9426C70.9304 19.6678 70.8687 19.7141 70.3749 19.6524C70.0972 19.6215 69.7114 19.6678 69.5417 19.7604C69.372 19.8529 68.5388 21.1182 67.6902 22.584C65.5609 26.2408 65.8694 25.9168 64.8511 25.4231C64.0333 25.0219 63.9716 25.0219 63.447 25.2379C63.0612 25.3922 62.8452 25.5928 62.7681 25.9014C62.5366 26.7809 62.7372 27.1512 63.7556 27.7838L64.4191 28.2004L58.8489 37.8285L53.2788 47.4721L51.9056 51.1598C51.1341 53.1811 50.1003 55.6344 49.6066 56.6065C48.7734 58.1803 48.6808 58.4426 48.6808 59.2912C48.6808 59.893 48.7888 60.4793 49.0048 60.9731L49.3288 61.7291L47.971 63.3955C47.2304 64.3059 46.5823 65.1236 46.5206 65.1854C46.4589 65.2625 46.1812 64.7533 45.9034 64.0744C45.1319 62.1457 44.0673 61.3742 42.5552 61.6674C41.9843 61.7754 40.9659 62.6549 40.5648 63.3492C40.4413 63.5807 40.3487 62.9944 40.1482 60.757C39.8704 57.5477 39.7316 57.1311 38.6823 56.4213C37.6794 55.7424 36.1827 55.9738 35.3804 56.9305C34.7941 57.6248 31.4612 67.6695 31.6155 68.2713C31.739 68.8113 32.5722 69.336 33.0968 69.2279C33.3128 69.1817 33.6214 68.9811 33.7911 68.7959C33.9609 68.5953 34.7632 66.4197 35.6427 63.7041C36.4913 61.0965 37.2165 58.9672 37.2628 58.9672C37.3245 58.9672 37.448 60.1244 37.556 61.544C37.664 62.9944 37.8491 64.3676 37.9726 64.6762C38.8212 66.6975 41.3054 66.9752 42.5552 65.1854C42.8175 64.8151 43.0798 64.5219 43.1261 64.5219C43.1878 64.5219 43.4193 65.0156 43.6661 65.6174C44.1907 66.9752 44.6382 67.5153 45.5177 67.8393C46.32 68.1479 47.1224 68.0553 47.8476 67.5615C48.1099 67.3918 49.0511 66.3272 49.9306 65.2162L51.5198 63.1949L52.3993 63.2567C53.0937 63.3029 53.4486 63.2412 54.112 62.9481C55.1304 62.4697 55.547 62.0377 56.7505 60.1553C57.2751 59.3375 58.7564 57.3934 60.037 55.835L62.3669 53.0268L67.9679 43.3061C71.0384 37.952 73.5843 33.5699 73.5997 33.5391C73.7077 33.4156 74.9112 34.1563 75.1273 34.4649C75.6364 35.1746 75.4667 35.5758 72.6585 40.4516C71.1618 43.0438 69.912 45.3736 69.8657 45.6514C69.7886 46.0526 69.8657 46.2377 70.2669 46.6389C70.6835 47.0401 70.8378 47.1018 71.239 47.0246C71.5013 46.9783 71.8099 46.8549 71.9179 46.7623C72.2265 46.5 77.6886 36.9799 77.8583 36.409C78.3675 34.6346 77.6269 32.9373 75.8833 31.8109L74.9267 31.1938L76.6085 28.2621C78.4138 25.1608 78.5989 24.5744 78.0126 24.0344C77.7194 23.7566 77.7194 23.7412 78.2441 22.7846C78.9075 21.5811 79.0464 20.5936 78.7224 19.4518C78.2132 17.7391 76.7628 16.6899 74.9267 16.6899C74.2323 16.7053 73.7077 16.7979 73.2911 17.0139ZM75.837 19.6215C76.3308 20.1152 76.3771 20.609 75.9913 21.4113C75.7907 21.7971 75.5593 22.152 75.4513 22.1828C75.3124 22.2445 73.6306 21.3959 73.2294 21.0719C73.1214 20.9793 73.9855 19.6369 74.2632 19.4826C74.7107 19.2203 75.4976 19.282 75.837 19.6215ZM72.9671 23.9572C74.1552 24.6516 75.1735 25.2379 75.2044 25.2688C75.2507 25.315 72.8591 29.5582 72.6585 29.7897C72.6277 29.8359 68.3845 27.4443 68.1376 27.2438C68.0759 27.1975 70.6372 22.7074 70.7298 22.7074C70.7607 22.7074 71.7636 23.2783 72.9671 23.9572ZM69.7732 31.2401C70.5601 31.6721 71.2081 32.1041 71.2081 32.1813C71.2081 32.2893 61.4566 49.2619 60.8857 50.1568C60.7777 50.3111 60.2685 50.0797 58.5403 49.0768C57.3214 48.3824 56.303 47.7961 56.2722 47.7652C56.2413 47.7498 62.7527 36.3781 66.3786 30.16L66.7644 29.5119L67.5513 29.9594C67.9987 30.2217 69.0017 30.7926 69.7732 31.2401ZM57.6763 51.5918C58.4169 52.0238 59.065 52.425 59.1112 52.5022C59.1575 52.5793 58.4478 53.536 57.5374 54.6469L55.871 56.6373L55.0224 56.159C54.5441 55.8813 53.9732 55.5572 53.7417 55.4184C53.4948 55.2949 53.3097 55.1406 53.3097 55.0944C53.3097 54.9863 55.0069 50.4654 55.115 50.2803C55.1458 50.2186 55.439 50.3111 55.7476 50.4963C56.0716 50.6815 56.9202 51.1752 57.6763 51.5918ZM53.4023 58.2883C53.9423 58.5969 54.3898 58.8746 54.3898 58.9055C54.3898 59.1678 53.7109 60.217 53.4331 60.4176C52.6153 61.0039 51.4427 60.4176 51.4118 59.4301C51.4118 58.8746 51.9827 57.7328 52.2605 57.7328C52.3376 57.7328 52.8622 57.9797 53.4023 58.2883Z" fill="#124590"/>
<path d="M16.1703 19.6531C15.7074 20.1777 15.6457 20.5018 15.8771 21.0881C16.0469 21.4893 16.2474 21.6436 16.6949 21.7824C17.1115 21.9059 21.1386 21.9367 30.597 21.9059L43.9283 21.8596L44.2986 21.4275C44.7769 20.8566 44.7769 20.1777 44.2832 19.6994L43.9129 19.3137H30.1959H16.4789L16.1703 19.6531Z" fill="#124590"/>
<path d="M21.8484 28.5867C21.3084 28.8027 21.077 29.1885 21.0615 29.8365C21.0615 30.2686 21.1541 30.4691 21.4627 30.716C21.8793 31.04 21.941 31.04 36.8307 31.04H51.782L52.1523 30.6543C52.677 30.1451 52.677 29.3736 52.1369 28.8645L51.7357 28.4941L36.985 28.4633C27.7117 28.4479 22.0799 28.4941 21.8484 28.5867Z" fill="#124590"/>
<path d="M10.1527 36.3941C9.68984 36.4867 9.18066 37.1502 9.18066 37.6902C9.18066 37.9217 9.35039 38.3229 9.55098 38.5543L9.92129 38.9863H23.5766H37.2318L37.633 38.616C38.1885 38.0914 38.1885 37.2582 37.633 36.7336L37.2318 36.3633L23.8697 36.3479C16.5098 36.3324 10.3379 36.3479 10.1527 36.3941Z" fill="#124590"/>
<path d="M41.8138 36.3941C40.8109 36.6564 40.456 37.9062 41.2121 38.616L41.6132 38.9863H46.705H51.7968L52.1672 38.5543C52.6455 37.9988 52.6455 37.3508 52.1672 36.7953L51.7968 36.3633L46.9519 36.3324C44.298 36.3324 41.9836 36.3479 41.8138 36.3941Z" fill="#124590"/>
<path d="M9.87452 43.1061C9.0876 43.5535 8.93331 44.541 9.56592 45.1582L9.93624 45.5439H17.0185H24.1007L24.5173 45.1428C25.0573 44.5873 25.0419 43.9547 24.471 43.3684L24.0235 42.9209H17.0956C12.189 42.9363 10.0905 42.9826 9.87452 43.1061Z" fill="#124590"/>
<path d="M28.3133 43.1215C27.4801 43.5381 27.3721 44.649 28.1127 45.2354C28.4831 45.5285 28.7608 45.5439 33.544 45.5439C38.4043 45.5439 38.6049 45.5285 38.9289 45.2354C39.6387 44.5719 39.4998 43.5535 38.6512 43.1215C38.0957 42.8437 28.8688 42.8437 28.3133 43.1215Z" fill="#124590"/>
<path d="M14.1183 52.4102C9.90599 53.3051 6.6349 56.4682 5.53939 60.665C5.13822 62.208 5.16908 64.7539 5.60111 66.2969C6.71205 70.1543 9.58197 73.0088 13.424 74.1197C14.3652 74.382 15.0595 74.4592 16.3556 74.4746C18.454 74.4746 19.3181 74.274 21.3394 73.2865C22.6818 72.6539 23.1447 72.3299 24.1322 71.3424C26.1535 69.3365 27.3261 66.8678 27.4958 64.2293C27.573 62.9332 27.573 62.8869 27.1564 62.4703C26.2306 61.56 24.9191 62.2543 24.9191 63.643C24.9036 65.5717 23.9316 67.8398 22.4503 69.3057C20.7376 71.0184 18.7935 71.8361 16.4327 71.8361C11.6033 71.867 7.85384 68.1176 7.8847 63.2881C7.8847 60.9273 8.70248 58.9832 10.4152 57.2705C12.4673 55.2184 15.4452 54.3697 18.2843 55.0486C19.1792 55.2492 19.6576 55.4652 21.7097 56.5299C22.2189 56.8076 22.3115 56.8076 22.8206 56.5916C23.407 56.3447 23.5921 55.9436 23.4995 55.1721C23.407 54.2926 20.9228 52.8885 18.6083 52.3947C17.3431 52.1324 15.4298 52.1324 14.1183 52.4102Z" fill="#124590"/>
<path d="M21.2158 59.5383C21.0924 59.5845 19.858 60.7109 18.4693 62.0224L15.9543 64.414L14.365 62.8556C13.0535 61.5595 12.6986 61.2818 12.3129 61.2818C11.6494 61.2818 11.0322 61.9299 11.0322 62.6242C11.0322 63.0871 11.2328 63.3648 12.6678 64.8306C13.5627 65.7564 14.5348 66.6205 14.8434 66.7594C15.4605 67.0525 16.4635 67.0988 17.1115 66.8365C17.7133 66.6205 22.4348 61.9607 22.6971 61.3281C22.9902 60.6338 22.7279 59.924 22.049 59.6463C21.7713 59.5228 21.509 59.4302 21.4935 59.4457C21.4627 59.4457 21.3393 59.492 21.2158 59.5383Z" fill="#124590"/>
</g>
<defs>
<clipPath id="clip0_35_81">
<rect width="79" height="79" fill="white"/>
</clipPath>
</defs>
</svg>
