<svg width="68" height="77" viewBox="0 0 68 77" fill="none" xmlns="http://www.w3.org/2000/svg">
<path d="M19.493 0.26149C17.5306 0.822174 15.9607 2.1865 15.0636 4.09281C14.5964 5.12073 14.5777 5.21417 14.5777 9.06418C14.5777 12.9142 14.5777 13.0076 15.0823 14.0542C15.344 14.6336 15.9233 15.4933 16.3532 15.9606C16.9326 16.596 17.1195 16.9137 17.0634 17.3062C17.0073 17.7734 16.8017 17.9042 14.7646 18.7079L12.5219 19.605L11.55 19.1377C10.2978 18.521 9.38206 18.4089 8.27939 18.7453C7.47574 19.0069 7.34492 18.9882 6.97113 18.7079C6.22356 18.1472 5.51336 17.9416 4.42938 17.9416C3.08374 17.9416 2.07452 18.4089 1.19612 19.3807C0.0373787 20.6703 0 20.9132 0 27.6601C0 33.379 0.0373787 33.8089 0.429855 35.1919C0.654128 35.9955 1.0466 37.0608 1.28957 37.5468C1.55122 38.0327 3.49491 40.8174 5.6255 43.7516C11.9986 52.4796 12.4097 53.2271 13.4376 57.9555C13.5311 58.3854 13.4563 58.4415 12.7461 58.6284C12.3163 58.7592 11.7182 59.1143 11.4005 59.432L10.8398 60.0114L10.7838 67.5245C10.709 75.9534 10.709 75.8413 12.0546 76.6075C12.7648 77 12.8022 77 22.9318 76.9252C28.5013 76.8879 33.2858 76.8505 33.5474 76.8505C33.8091 76.8505 38.6496 76.8879 44.3125 76.9252L54.5916 77L55.2458 76.5888C56.5353 75.7291 56.5353 75.6731 56.5353 67.7861C56.5353 60.1235 56.4979 59.8805 55.5074 59.0956C55.2271 58.8713 54.7038 58.647 54.3487 58.5723C53.7132 58.4602 53.7132 58.4415 53.8254 57.6752C54.0683 56.2361 54.8907 53.9186 55.7317 52.3114C56.1802 51.433 58.5725 47.9567 61.0395 44.5553C63.4878 41.1725 65.7118 37.9766 65.9734 37.4533C66.7023 35.9208 67.1882 33.8836 67.1882 32.2951C67.1882 31.0242 67.1322 30.8186 66.7771 30.5756C66.1977 30.1645 65.9361 30.2018 65.4128 30.7438C65.0203 31.1176 64.9455 31.3793 64.9455 32.2203C64.9455 33.6594 64.6091 35.0424 63.955 36.3506C63.656 36.9674 61.5067 40.0698 59.1705 43.2657C56.853 46.4429 54.5729 49.7322 54.087 50.5546C52.9656 52.5169 52.1246 54.7223 51.7322 56.7968L51.3957 58.4975H44.7236H38.0328V53.7691C38.0328 48.181 38.1263 47.6577 39.528 46.0317C40.0326 45.4337 42.6865 42.649 45.4525 39.8269L50.4613 34.706L51.3957 34.6312C52.6105 34.5191 53.5076 35.0798 53.9001 36.2011C54.2739 37.2477 53.9749 38.1448 52.8348 39.3596C50.237 42.1443 47.6766 44.9851 47.4336 45.3589C46.8916 46.1999 47.6205 47.2652 48.5736 47.0223C49.2091 46.8728 59.9368 34.9489 60.3853 33.8836C60.5909 33.4164 60.647 31.996 60.647 27.5666C60.647 21.4365 60.6844 21.1375 61.6188 20.4834C62.329 19.9788 63.5438 20.0909 64.2353 20.7263L64.8521 21.2683L64.9455 24.0157C65.0203 26.4453 65.0764 26.7817 65.3941 27.0247C65.8987 27.3798 66.5154 27.3611 66.8705 26.9499C67.1322 26.6696 67.1882 26.1649 67.1882 23.9409C67.1882 22.0907 67.1135 21.1001 66.9266 20.6703C66.5154 19.6984 65.3754 18.5584 64.4783 18.2033C63.2822 17.7547 61.4693 17.9042 60.5348 18.521C59.8433 18.9695 59.7686 18.9882 58.9649 18.7453C57.5819 18.3154 55.6756 18.8013 54.7972 19.7732C54.4608 20.147 54.4608 20.147 53.4889 19.6424C52.947 19.362 51.7322 18.8387 50.7977 18.4836C49.0783 17.8482 49.0596 17.8482 49.0596 17.2127C49.0596 16.7455 49.2465 16.3904 49.7324 15.8297C50.1062 15.4186 50.6295 14.6149 50.9098 14.0355C51.3771 13.0076 51.3957 12.9142 51.3957 9.06418C51.3957 5.38238 51.3771 5.08335 50.9659 4.22364C49.8071 1.70058 47.2654 -0.000160217 44.6676 -0.000160217C42.836 -0.000160217 40.4625 1.15858 39.3972 2.56029L38.9299 3.17703L38.0889 2.42946C35.2108 -0.093605 30.744 -0.130981 27.9593 2.37339L27.1183 3.12096L26.1464 2.11174C24.8568 0.784798 23.4365 0.149361 21.6983 0.0746002C20.9508 0.0372238 19.9789 0.130669 19.493 0.26149ZM22.502 2.42946C23.7916 2.80325 25.0998 4.01805 25.567 5.28893C25.6792 5.58796 25.6231 5.62534 25.1185 5.51321C24.6513 5.40107 24.2027 5.55058 22.8197 6.24209C20.9695 7.15787 19.7173 7.53165 17.867 7.75593L16.6709 7.88675L16.7644 6.69064C16.8204 6.03651 17.0073 5.21417 17.1942 4.85908C18.2034 2.84062 20.4275 1.8314 22.502 2.42946ZM46.9664 2.93407C47.8074 3.43868 49.0596 5.00859 49.0596 5.51321C49.0596 5.71879 48.9474 5.71879 48.4989 5.55058C48.013 5.36369 47.77 5.43845 46.2188 6.20471C43.7518 7.45689 40.9297 8.07365 40.7615 7.41952C40.3316 5.79354 40.313 5.49451 40.612 4.85908C41.0605 3.92461 42.1632 2.89669 43.0977 2.5416C44.3125 2.11174 45.8824 2.26125 46.9664 2.93407ZM35.0799 3.17703C36.6498 3.7564 38.3879 5.84961 38.4066 7.17656C38.4066 7.49428 38.3879 7.49428 37.9394 7.21394C37.2479 6.76539 36.6125 6.84015 35.1547 7.6251C32.8372 8.87729 30.5758 9.53142 28.5573 9.53142H27.3799V8.72778C27.3986 4.4666 31.2112 1.71926 35.0799 3.17703ZM25.1372 11.1387V13.8113L24.4644 14.4654C23.5112 15.3999 22.4272 15.755 20.9508 15.6615C18.5585 15.512 16.8952 13.83 16.7644 11.419L16.6896 10.1669L18.8015 9.84914C20.7265 9.53142 22.5954 8.93336 24.0158 8.12971C24.427 7.90544 24.5204 7.92413 24.8195 8.16709C25.0998 8.42874 25.1372 8.83991 25.1372 11.1387ZM48.6671 8.67171L49.3025 9.32584L49.2091 10.9705C49.1156 12.9889 48.5923 14.0542 47.2467 14.97C46.5552 15.4559 46.1627 15.5868 45.1161 15.6615C43.5462 15.7737 42.4996 15.4186 41.5091 14.4654L40.8176 13.7926L40.8736 11.905L40.9297 9.99865L42.2006 9.84914C43.5462 9.69962 45.8263 9.0268 46.9664 8.41006C47.9008 7.92413 47.9569 7.94282 48.6671 8.67171ZM37.8273 10.2977L38.6496 11.2508L38.5562 13.0637C38.444 15.1756 38.0328 16.2596 36.9115 17.3809C35.8088 18.4836 34.6501 18.9509 33.0054 18.9322C29.7908 18.9322 27.6042 16.7829 27.4173 13.4375L27.3425 11.9797L27.9593 11.8863C28.3144 11.8302 29.1367 11.7554 29.8095 11.6807C31.529 11.5312 33.6222 10.9331 35.2294 10.1108C35.9957 9.71831 36.7246 9.3819 36.818 9.3819C36.9302 9.36321 37.3787 9.77438 37.8273 10.2977ZM26.5763 18.0725C26.5389 18.0911 26.3333 18.0725 26.109 17.9977C25.7726 17.9229 25.6979 17.7734 25.6979 17.2127L25.7166 16.5399L26.1651 17.2875C26.4081 17.68 26.595 18.0351 26.5763 18.0725ZM40.4625 17.2688C40.4625 17.7547 40.369 17.9229 40.0513 18.0164C39.3411 18.2033 39.3224 18.1472 39.7523 17.3809C40.2756 16.4652 40.4625 16.4465 40.4625 17.2688ZM23.4551 18.3528C23.4551 18.6518 23.6794 19.063 23.9971 19.3994L24.5578 19.9414L23.7729 20.689C22.7636 21.6608 22.2964 21.9038 21.3059 21.9038C20.334 21.9038 19.6612 21.5674 18.7267 20.6142L18.0352 19.8853L18.5772 19.4928C18.8949 19.2499 19.1566 18.8387 19.2314 18.4649L19.3435 17.8482H21.3993H23.4551V18.3528ZM46.8168 18.2593C46.8168 18.4836 47.0598 18.9509 47.3775 19.306L47.9195 19.9414L47.0411 20.7824C46.088 21.7169 45.6394 21.9225 44.5554 21.9038C43.677 21.8851 42.9855 21.53 42.1632 20.6703L41.5278 20.0161L42.1258 19.3433C42.4435 18.9695 42.7052 18.4836 42.7052 18.2593C42.7052 17.8669 42.7613 17.8482 44.761 17.8482C46.7608 17.8482 46.8168 17.8669 46.8168 18.2593ZM5.51336 20.4273C5.77501 20.5581 6.13011 20.9506 6.29831 21.3057C6.59734 21.8851 6.63472 22.614 6.63472 27.7162C6.63472 32.4446 6.69079 33.5659 6.91506 34.0145C7.56919 35.2667 17.9418 46.798 18.6146 47.0036C19.4369 47.2652 20.334 46.3681 19.9789 45.6206C19.8855 45.4337 18.6333 43.9759 17.1755 42.3873C13.2694 38.1448 13.3255 38.2196 13.2321 37.3038C13.0078 35.3788 14.9889 33.9584 16.6896 34.8368C17.1942 35.0985 18.2034 36.1077 24.8382 42.9854C29.3797 47.6764 29.1367 47.097 29.2115 53.4888L29.2675 58.4975H22.5581H15.8486L15.5122 56.8716C15.1384 54.9092 14.26 52.4983 13.3255 50.8349C12.9517 50.1621 10.5782 46.7606 8.05511 43.2657C5.1022 39.1727 3.27064 36.4815 2.95292 35.6965L2.42962 34.4817L2.37355 27.9778L2.31748 21.4739L2.97161 20.8198C3.47622 20.3152 3.75656 20.1843 4.33593 20.1843C4.72841 20.1843 5.25171 20.2965 5.51336 20.4273ZM10.2791 21.0067C11.0454 21.3431 11.5313 22.0346 11.55 22.8569C11.55 23.212 10.9893 25.137 10.2605 27.1555L8.97089 30.8373L8.87745 25.922C8.82138 22.7635 8.85876 20.9693 8.97089 20.8945C9.25123 20.689 9.56895 20.7077 10.2791 21.0067ZM16.9139 21.9785C18.2034 23.3055 19.5865 24.1091 20.577 24.1091C20.8947 24.1091 21.2124 24.1652 21.2685 24.2213C21.3246 24.296 21.0629 24.7072 20.6704 25.1557C20.278 25.6043 19.7547 26.3518 19.5117 26.8191L19.0631 27.6601H15.8486C14.0731 27.6601 12.6153 27.5853 12.6153 27.5106C12.6153 27.4358 12.9143 26.4827 13.2881 25.3987C13.8301 23.8101 13.9236 23.2868 13.8488 22.5018L13.7367 21.53L14.6338 21.1562C15.1197 20.9506 15.5495 20.7637 15.6056 20.7637C15.6617 20.745 16.2597 21.3057 16.9139 21.9785ZM27.5481 20.9506C27.8658 21.0627 28.1275 21.2123 28.1275 21.287C28.1275 21.3618 27.5668 21.6234 26.8753 21.8851C26.1838 22.128 25.5297 22.371 25.4175 22.4084C25.3241 22.4458 25.567 22.1094 25.9782 21.6234C26.3894 21.1562 26.7819 20.7637 26.8379 20.7637C26.894 20.745 27.2117 20.8385 27.5481 20.9506ZM39.9018 21.53C40.2569 21.9598 40.4251 22.2589 40.2756 22.2028C40.1261 22.1654 39.5467 21.9598 39.0234 21.7729C38.4814 21.5674 38.0328 21.3618 38.0328 21.287C38.0328 21.1749 38.8365 20.8011 39.1542 20.7637C39.2103 20.7637 39.5467 21.1001 39.9018 21.53ZM51.5266 21.2123C53.0217 21.829 53.3581 22.1467 53.3581 22.9691C53.3581 23.3428 53.6572 24.4829 54.0123 25.5108C54.3673 26.5387 54.6664 27.4358 54.6664 27.5106C54.6664 27.604 52.9096 27.6601 50.779 27.6601H46.8916L46.4804 26.8191C46.2562 26.3518 45.7329 25.6043 45.3217 25.1557C44.9105 24.7072 44.5741 24.296 44.5741 24.2213C44.5741 24.1652 44.8918 24.1091 45.2843 24.1091C46.3683 24.1091 47.7326 23.3428 49.0596 21.9785C49.7137 21.3057 50.2931 20.745 50.3118 20.745C50.3491 20.745 50.8911 20.9506 51.5266 21.2123ZM58.4977 20.988C58.4977 21.0067 58.4603 23.2494 58.4043 25.9781L58.3108 30.9307L56.9652 27.1368C56.2176 25.0436 55.6008 23.156 55.6008 22.9317C55.6008 21.829 57.0212 20.6329 58.0305 20.8572C58.2921 20.9132 58.4977 20.9693 58.4977 20.988ZM33.0802 21.2123C33.6035 21.2123 34.3697 21.1375 34.7996 21.0627L35.5845 20.8945L35.7154 21.6982C35.8462 22.4645 36.3508 23.1933 36.9302 23.3989C37.2479 23.5297 35.435 25.4734 34.5753 25.922C33.9025 26.2958 32.1457 26.3145 31.4916 25.9967C30.9683 25.7164 28.8751 23.7353 28.8751 23.5111C28.8751 23.4363 28.9872 23.3615 29.118 23.3615C29.6413 23.3615 30.3702 22.3336 30.3702 21.6047V20.9132L31.2673 21.0627C31.7532 21.1375 32.5756 21.2123 33.0802 21.2123ZM28.0154 25.9781C30.1272 28.1086 31.8467 28.8001 33.9586 28.4077C35.4911 28.1086 36.3695 27.5853 37.9581 25.9781C38.7617 25.1557 39.5093 24.4829 39.6214 24.4829C39.7149 24.4829 40.369 24.7072 41.0792 24.9875C42.5557 25.5669 43.8639 26.6322 44.4059 27.6975C44.9292 28.7067 45.1909 30.5009 45.0414 31.9026L44.9105 33.08H39.9952C35.1173 33.08 35.0612 33.08 34.7809 33.4912C34.351 34.0892 34.4071 34.5004 34.9865 34.9489C35.4724 35.3414 35.6219 35.3414 40.6494 35.2854C45.2469 35.2293 45.845 35.1919 46.2935 34.8929C47.0411 34.3883 47.3775 33.323 47.3775 31.4914V29.9028H51.4705H55.5448L56.3297 32.1455L57.1147 34.407L56.6661 34.9303L56.2176 35.4722L55.5822 34.5191C55.1897 33.9397 54.5916 33.323 54.0309 32.9866C53.2086 32.5006 52.947 32.4259 51.6948 32.4259C50.6855 32.4259 50.0688 32.5193 49.5829 32.7623C48.9287 33.0987 47.0972 34.8929 40.7054 41.4902C35.7154 46.6298 35.7901 46.4429 35.7901 53.657V58.4415L35.0052 58.591C33.9959 58.7592 33.2858 58.7592 32.2952 58.591L31.4916 58.4415V53.9373C31.4916 51.4516 31.3981 48.9099 31.286 48.2931C30.9309 46.3681 30.1833 45.2655 26.8379 41.8079C25.1372 40.0324 23.044 37.8832 22.203 37.0048L20.6704 35.4162L25.7913 35.3227C30.6319 35.2293 30.9309 35.2106 31.1925 34.8555C31.5663 34.3509 31.5663 33.9584 31.1739 33.4725C30.8561 33.0987 30.6692 33.08 25.8848 33.0239L20.9321 32.9866L20.9508 31.0242C20.9695 29.3048 21.0255 28.931 21.4741 27.9778C21.7544 27.3984 22.3151 26.6322 22.7076 26.2958C23.343 25.7725 25.8287 24.539 26.352 24.5016C26.4641 24.4829 27.2117 25.1557 28.0154 25.9781ZM18.5959 31.5849V33.2482L17.6241 32.7997C15.344 31.7344 12.5779 32.6502 11.4566 34.8181L11.0641 35.5844L10.6342 35.0424C10.3913 34.7247 10.1857 34.3696 10.1857 34.2574C10.1857 34.1266 10.4847 33.1921 10.8585 32.2016C11.2136 31.1924 11.55 30.2579 11.5874 30.1271C11.6435 29.9589 12.5219 29.9028 15.1384 29.9028H18.5959V31.5849ZM32.3887 62.4597L32.4447 64.1043H22.7076H12.9891V62.5531C12.9891 61.6934 13.0452 60.9272 13.1199 60.8711C13.176 60.7963 17.5306 60.7589 22.7823 60.7776L32.3326 60.8337L32.3887 62.4597ZM54.2552 62.4597L54.3113 64.1043H44.4807H34.6688V62.6466C34.6688 61.7495 34.7622 61.0954 34.893 60.9645C35.0612 60.7963 37.3974 60.7403 44.6676 60.7776L54.1991 60.8337L54.2552 62.4597ZM32.3887 70.4961L32.3326 74.6638H22.7076H13.0826L13.0265 70.4961L12.9891 66.3471H22.7076H32.426L32.3887 70.4961ZM54.2552 70.4961L54.1991 74.6638L44.6863 74.7199C37.8273 74.7386 35.0986 74.7012 34.9304 74.5517C34.7248 74.3835 34.6688 73.4864 34.6688 70.3466V66.3471H44.4807H54.2926L54.2552 70.4961Z" fill="#124590"/>
</svg>
