<svg width="78" height="78" viewBox="0 0 78 78" fill="none" xmlns="http://www.w3.org/2000/svg">
<path d="M10.5422 0.228119C9.88711 0.426163 8.98828 1.02031 8.48555 1.59921C8.02852 2.11718 7.46484 3.39687 7.46484 3.96054C7.46484 4.24999 7.40391 4.56992 7.34297 4.66132C7.28203 4.76796 6.50508 4.85937 5.39297 4.90508C3.8543 4.96601 3.4125 5.04218 2.71172 5.3621C1.69102 5.83437 0.837891 6.67226 0.396094 7.60155L0.0761719 8.30234V38.9996V69.6969L0.396094 70.3976C0.837891 71.3269 1.69102 72.1648 2.71172 72.6371C3.4125 72.957 3.8543 73.0332 5.39297 73.0941C6.50508 73.1398 7.28203 73.2312 7.34297 73.3379C7.40391 73.4293 7.46484 73.7492 7.46484 74.0387C7.48008 75.2726 8.66836 76.9027 10.0395 77.573L10.7402 77.9234L37.8574 77.9691C67.8539 77.9996 65.843 78.0758 67.2293 77.0094C67.7168 76.6285 68.0672 76.1715 68.4328 75.4555L68.9356 74.4195V67.1375V59.8402L68.509 59.4746C67.991 59.0328 67.4883 59.0023 67.016 59.3984L66.6504 59.6879L66.5742 66.909L66.4981 74.1148L66.1324 74.6328C65.4164 75.623 67.3664 75.5621 38.1469 75.5621C13.7414 75.5621 11.502 75.5469 11.0145 75.3184C9.88711 74.7699 9.99375 77.3445 9.90235 47.3633C9.82617 21.6629 9.81094 20.4289 9.55195 20.1395C8.91211 19.4234 7.73906 19.7281 7.48008 20.6727C7.3582 21.0687 7.3125 28.9602 7.3125 45.8855V70.5348H5.60625C3.62578 70.5348 3.03164 70.3062 2.65078 69.3922C2.33086 68.6 2.33086 9.39921 2.65078 8.60703C3.03164 7.69296 3.62578 7.46445 5.59102 7.46445H7.29727L7.34297 11.9738L7.38867 16.4832L7.81524 16.8488C8.54649 17.4734 9.41485 17.2602 9.75 16.3918C9.84141 16.1328 9.90235 13.741 9.90235 9.93241C9.90235 4.28046 9.91758 3.8539 10.1918 3.4121C10.8316 2.36093 8.63789 2.4371 38.1469 2.4371C67.3664 2.4371 65.4164 2.37617 66.1324 3.3664L66.4981 3.88437L66.5438 23.1102L66.5742 42.3359L61.5317 49.0848C58.759 52.8019 56.4281 55.8945 56.3672 55.9707C56.291 56.0316 55.316 54.8586 54.1734 53.3504C53.0461 51.8422 51.8883 50.4254 51.6141 50.2273C50.5477 49.4199 49.0395 49.1152 47.7445 49.4504C44.9566 50.1664 43.5398 53.259 44.85 55.7726C45.3832 56.8086 52.9242 66.7871 53.4574 67.168C53.7012 67.3355 54.2344 67.625 54.6305 67.8078C56.032 68.4019 58.0582 68.0516 59.2465 66.9851C59.8102 66.4672 77.4059 42.9758 77.6344 42.4121C78.457 40.4316 77.6801 37.9484 75.8672 36.8363C73.8106 35.5566 71.3274 36.0898 69.743 38.1465L69.0879 38.9996L69.0117 21.282L68.9356 3.57968L68.4328 2.54375C68.0672 1.82773 67.7168 1.3707 67.2293 0.989838C65.843 -0.0765686 67.8539 -0.000396729 38.1012 0.0148392C16.1027 0.0148392 11.0754 0.0605392 10.5422 0.228119ZM74.6484 38.9844C74.8617 39.1215 75.1512 39.4871 75.3035 39.7766C75.8977 40.9039 76.1719 40.4773 66.6656 53.1371C61.8516 59.5812 57.7231 64.9894 57.525 65.1875C57.0223 65.6598 55.9711 65.7816 55.316 65.4465C54.9809 65.2637 53.625 63.5879 50.9438 59.9926C47.1199 54.9043 46.7695 54.3711 46.7695 53.7465C46.7695 53.2133 47.257 52.3754 47.7445 52.0859C48.4149 51.6746 49.5422 51.7051 50.0449 52.1316C50.2582 52.3297 51.5531 53.9598 52.909 55.7574C55.5598 59.2766 55.9254 59.6117 56.6871 59.2461C56.9766 59.109 59.5512 55.7726 64.3043 49.4352C68.25 44.1488 71.6625 39.6395 71.891 39.3957C72.6832 38.5273 73.7801 38.3598 74.6484 38.9844Z" fill="#124590"/>
<path d="M19.576 14.9592C18.799 15.401 18.6619 16.2389 19.2713 16.833L19.6369 17.2139H38.1619H56.6869L57.0525 16.833C57.2963 16.6045 57.4334 16.2846 57.4334 15.9951C57.4334 15.7057 57.2963 15.3857 57.0525 15.1572L56.6869 14.7764H38.2838C24.7252 14.7916 19.8045 14.8373 19.576 14.9592Z" fill="#124590"/>
<path d="M28.5188 21.5709C28.3208 21.708 28.1075 21.9822 28.0313 22.1803C27.8638 22.6221 28.1075 23.4143 28.4884 23.6123C28.6712 23.7037 32.3579 23.7646 38.2384 23.7646H47.6989L48.0645 23.3838C48.6587 22.8049 48.4759 21.8299 47.7294 21.4947C47.4704 21.3729 44.5759 21.3271 38.1165 21.3271C29.8747 21.3271 28.8235 21.3576 28.5188 21.5709Z" fill="#124590"/>
<path d="M19.2713 31.6104C18.6619 32.2197 18.8143 33.0729 19.6064 33.4842C19.8502 33.6213 23.4455 33.667 33.3478 33.667H46.7541L47.1502 33.3166C47.6834 32.8748 47.7139 32.1283 47.2264 31.6104L46.876 31.2295H33.2564H19.6369L19.2713 31.6104Z" fill="#124590"/>
<path d="M53.8985 31.4428C53.5024 31.7322 53.3043 32.3873 53.4719 32.8139C53.7157 33.4689 54.1879 33.667 55.4981 33.667C56.5493 33.667 56.7321 33.6213 57.052 33.2861C57.2957 33.0576 57.4329 32.7377 57.4329 32.4482C57.4329 32.1588 57.2957 31.8389 57.052 31.6104C56.7168 31.26 56.5645 31.2295 55.4219 31.2295C54.6297 31.2447 54.0661 31.3057 53.8985 31.4428Z" fill="#124590"/>
<path d="M19.2867 38.1764C19.0582 38.4201 18.8906 38.7553 18.8906 38.999C18.8906 39.2428 19.0582 39.5779 19.2867 39.8217L19.698 40.2178H33.2109C46.6629 40.2178 46.7238 40.2178 47.1352 39.8979C47.6988 39.4561 47.6988 38.542 47.1352 38.1002C46.7238 37.7803 46.6629 37.7803 33.2109 37.7803H19.698L19.2867 38.1764Z" fill="#124590"/>
<path d="M53.8381 38.1307C53.5334 38.3896 53.4268 38.6334 53.4268 38.999C53.4268 39.3646 53.5334 39.6084 53.8381 39.8674C54.2037 40.1721 54.417 40.2178 55.4682 40.2178C56.565 40.2178 56.7174 40.1721 57.0525 39.8369C57.2963 39.6084 57.4334 39.2885 57.4334 38.999C57.4334 38.7096 57.2963 38.3896 57.0525 38.1611C56.7174 37.826 56.565 37.7803 55.4682 37.7803C54.417 37.7803 54.2037 37.826 53.8381 38.1307Z" fill="#124590"/>
<path d="M19.8504 55.8633C19.4086 55.9547 18.8906 56.6098 18.8906 57.0668C18.8906 57.2497 19.0582 57.6153 19.2562 57.8438L19.6219 58.2704H29.1434C39.3961 58.2704 39 58.3008 39.3199 57.4782C39.3961 57.2801 39.3809 56.945 39.2742 56.6555C38.9543 55.7415 39.0305 55.7567 29.1434 55.7719C24.2227 55.7872 20.0332 55.8329 19.8504 55.8633Z" fill="#124590"/>
<path d="M19.2718 62.8414C18.7843 63.3137 18.7843 63.8469 19.2566 64.3953L19.6222 64.8219L23.0957 64.8676C25.0152 64.898 26.7215 64.8828 26.9195 64.8219C27.8336 64.5934 28.184 63.4203 27.5289 62.7957C27.1785 62.4758 27.0719 62.4606 23.4004 62.4606H19.6375L19.2718 62.8414Z" fill="#124590"/>
</svg>
